# xmcd CD database file
#
# Track frame offsets:
#	150
#	25220
#	47322
#	75388
#	103603
#	128115
#	152048
#	182061
#	207511
#	228598
#
# Disc length: 3518 seconds
#
# Revision: 0
# Processed by: cddbd v1.5PL3 Copyright (c) Steve Scherf et al.
# Submitted via: CDex 1.51
#
DISCID=770dbc0a
DTITLE=Anthony Cubbon - Watersculptures
DYEAR=1998
DGENRE=New Age
TTITLE0=Seduced by the Sea
TTITLE1=Ballad for Daydreamers
TTITLE2=A Shimmering Sea
TTITLE3=Bay of Tranquility
TTITLE4=Poetic Rain
TTITLE5=The Memory of Water
TTITLE6=Sirens Waltz
TTITLE7=Isle of Enchantment
TTITLE8=The Deep
TTITLE9=Watersculptures (Parts 1&2)
EXTD=YEAR: 1998
EXTT0=
EXTT1=
EXTT2=
EXTT3=
EXTT4=
EXTT5=
EXTT6=
EXTT7=
EXTT8=
EXTT9=
PLAYORDER=
